<?xml version="1.0" encoding="UTF-8"?>
<svg width="40px" height="40px" viewBox="0 0 40 40" version="1.1" xmlns="http://www.w3.org/2000/svg" xmlns:xlink="http://www.w3.org/1999/xlink">
    <!-- Generator: Sketch 55.2 (78181) - https://sketchapp.com -->
    <title>icon_telephone</title>
    <desc>Created with Sketch.</desc>
    <defs>
        <rect id="path-1" x="0" y="0" width="16" height="16"></rect>
    </defs>
    <g id="Welcome" stroke="none" stroke-width="1" fill="none" fill-rule="evenodd">
        <g id="outttt" transform="translate(-347.000000, -80.000000)">
            <g id="icon_telephone" transform="translate(347.000000, 80.000000)">
                <g>
                    <rect id="Rectangle" x="0" y="0" width="40" height="40"></rect>
                    <g id="Phone" transform="translate(12.000000, 12.000000)">
                        <mask id="mask-2" fill="white">
                            <use xlink:href="#path-1"></use>
                        </mask>
                        <g id="Rectangle"></g>
                        <g mask="url(#mask-2)">
                            <g transform="translate(-1.000000, 0.000000)">
                                <rect id="사각형_320" fill="none" x="1" y="0" width="16" height="16"></rect>
                                <path d="M10.286,11.429 L12,9.857 C12.1140915,9.74703394 12.2717472,9.69448204 12.429,9.714 L12.715,9.857 L16.715,11.714 C17.001,11.857 17.001,12 17.001,12.285 C16.9820341,13.2610128 16.5698987,14.1880472 15.858,14.856 C15.0554446,15.6297441 13.971947,16.0425567 12.858,15.999 C11.9285335,15.993662 10.5952002,15.6603286 8.858,14.999 C7.27357732,14.2842729 5.94024398,13.3319396 4.858,12.142 C3.23463402,10.3570907 3.3455854,10.1016737 2.714,9 C2.14716,7.99602942 1.66933455,6.94434499 1.286,5.857 C1.04997202,4.97273645 0.953476236,4.05703872 1,3.143 C1.09375519,2.33958762 1.44449834,1.58794506 2,1 C2.76387674,0.36643331 3.72166364,0.0135273044 4.714,0 C4.93772094,0.0043588622 5.14752749,0.109445855 5.285,0.286 L7.428,4.286 C7.44307632,4.39441601 7.49331299,4.49488933 7.571,4.572 C7.59046827,4.7287645 7.53831387,4.88596228 7.429,5 L5.571,6.714 C5.42535658,6.92971848 5.42535658,7.21228152 5.571,7.428 C6.061056,8.24794153 6.63587587,9.01414458 7.286,9.714 C7.98264225,10.4093779 8.74863432,11.0316208 9.572,11.571 C9.857,11.714 10.143,11.714 10.286,11.429 Z" id="패스_110" fill="#000000" fill-rule="nonzero"></path>
                            </g>
                        </g>
                    </g>
                </g>
            </g>
        </g>
    </g>
</svg>