<?xml version="1.0" encoding="UTF-8"?>
<svg width="130px" height="130px" viewBox="0 0 130 130" version="1.1" xmlns="http://www.w3.org/2000/svg" xmlns:xlink="http://www.w3.org/1999/xlink">
    <!-- Generator: Sketch 55.2 (78181) - https://sketchapp.com -->
    <title>icon_app</title>
    <desc>Created with Sketch.</desc>
    <g id="Welcome" stroke="none" stroke-width="1" fill="none" fill-rule="evenodd">
        <g id="session_now_details_web_damin" transform="translate(-210.000000, -203.000000)">
            <g id="icon_app" transform="translate(210.000000, 203.000000)">
                <path d="M35.7368775,106 L15,106 L15,28 L35.7368775,28 C39.1958277,28 42,30.8452982 42,34.3549773 C42,37.864884 39.1958277,40.7101821 35.7368775,40.7101821 L27.526245,40.7101821 L27.526245,93.2898179 L35.7368775,93.2898179 C39.1958277,93.2898179 42,96.135116 42,99.6450227 C42,103.154702 39.1958277,106 35.7368775,106" id="Fill-4" fill="#0E4AFF"></path>
                <path d="M115,106 L94.2632948,106 C90.804149,106 88,103.154702 88,99.6450227 C88,96.135116 90.804149,93.2898179 94.2632948,93.2898179 L102.473635,93.2898179 L102.473635,40.7101821 L94.2632948,40.7101821 C90.804149,40.7101821 88,37.864884 88,34.3549773 C88,30.8452982 90.804149,28 94.2632948,28 L115,28 L115,106 Z" id="Fill-6" fill="#0E4AFF"></path>
                <path d="M65,81 C61.6863651,81 59,78.1770622 59,74.6949647 L59,35.3050353 C59,31.8229378 61.6863651,29 65,29 C68.3138498,29 71,31.8229378 71,35.3050353 L71,74.6949647 C71,78.1770622 68.3138498,81 65,81" id="Fill-8" fill="#EDEDED"></path>
                <path d="M72,93.999887 C72,97.8660563 68.8660563,101 65.000113,101 C61.1341698,101 58,97.8660563 58,93.999887 C58,90.1339437 61.1341698,87 65.000113,87 C68.8660563,87 72,90.1339437 72,93.999887" id="Fill-10" fill="#EDEDED"></path>
                <rect id="Rectangle" x="0" y="0" width="130" height="130"></rect>
            </g>
        </g>
    </g>
</svg>