<?xml version="1.0" encoding="UTF-8"?>
<svg width="40px" height="40px" viewBox="0 0 40 40" version="1.1" xmlns="http://www.w3.org/2000/svg" xmlns:xlink="http://www.w3.org/1999/xlink">
    <!-- Generator: Sketch 55.2 (78181) - https://sketchapp.com -->
    <title>icon_message</title>
    <desc>Created with Sketch.</desc>
    <defs>
        <rect id="path-1" x="0" y="0" width="16" height="16"></rect>
    </defs>
    <g id="Welcome" stroke="none" stroke-width="1" fill="none" fill-rule="evenodd">
        <g id="outttt" transform="translate(-287.000000, -80.000000)">
            <g id="icon_message" transform="translate(287.000000, 80.000000)">
                <g>
                    <rect id="Rectangle" x="0" y="0" width="40" height="40"></rect>
                    <g id="Messages" transform="translate(12.000000, 12.000000)">
                        <mask id="mask-2" fill="white">
                            <use xlink:href="#path-1"></use>
                        </mask>
                        <g id="Rectangle"></g>
                        <g mask="url(#mask-2)">
                            <rect id="사각형_117" x="0" y="0" width="16" height="16"></rect>
                            <path d="M14,4 L2,4 L8,9 L14,4 Z M-2.22710739e-16,4 C0.00329480111,2.89679813 0.896798134,2.0032948 2,2 L14,2 C15.1032019,2.0032948 15.9967052,2.89679813 16,4 L16,12 C15.9967052,13.1032019 15.1032019,13.9967052 14,14 L2,14 C0.896798134,13.9967052 0.00329480111,13.1032019 -2.22710739e-16,12 L-2.22710739e-16,4 Z" id="패스_50" fill="#181818"></path>
                        </g>
                    </g>
                </g>
            </g>
        </g>
    </g>
</svg>