<?xml version="1.0" encoding="UTF-8"?>
<svg width="162px" height="45px" viewBox="0 0 162 45" version="1.1" xmlns="http://www.w3.org/2000/svg" xmlns:xlink="http://www.w3.org/1999/xlink">
    <!-- Generator: Sketch 55.2 (78181) - https://sketchapp.com -->
    <title>sponser_bronze</title>
    <desc>Created with Sketch.</desc>
    <g id="Welcome" stroke="none" stroke-width="1" fill="none" fill-rule="evenodd">
        <g id="session_now_details_web" transform="translate(-879.000000, -1709.000000)" fill-rule="nonzero">
            <g id="sponser_bronze" transform="translate(879.000000, 1709.000000)">
                <g transform="translate(0.500000, 0.000000)">
                    <path d="M16.9994929,8.00000644 C10.5036054,7.99472021 4.57359166,11.7436483 1.72299674,17.6577453 C-1.12759817,23.5718422 -0.399513937,30.6152982 3.59863759,35.8026154 L4.1294407,36.4651388 C4.39868865,36.7769146 4.6679366,37.0886903 4.96026295,37.3848773 L4.96026295,37.3848773 C8.24733368,40.9459285 12.3984081,43.5715899 16.9994929,45.0000064 C21.5889758,43.5767494 25.7313735,40.962292 29.0156444,37.4160549 L29.0156444,37.4160549 C29.3079707,37.1198679 29.5772187,36.8080922 29.8464666,36.4963164 L30.3772697,35.833793 C34.3916536,30.650045 35.1325601,23.5989964 32.2853419,17.6750789 C29.4381237,11.7511615 23.5026117,7.99432269 16.9994929,8.00000644 Z M16.9994929,31.8118858 C13.4094129,31.8118858 10.499078,28.8631155 10.499078,25.2256231 C10.499078,21.5881306 13.4094129,18.6393604 16.9994929,18.6393604 C20.5895729,18.6393604 23.4999077,21.5881306 23.4999077,25.2256231 C23.4999077,26.9724085 22.8150446,28.6476502 21.5959803,29.8828141 C20.376916,31.117978 18.7235101,31.8118858 16.9994929,31.8118858 L16.9994929,31.8118858 Z" id="Shape" fill="#FF8A3D"></path>
                    <path d="M22.0455555,8 C23.2872639,7.71798779 24.1215307,6.54512372 23.9854961,5.27271121 C23.8494615,4.0002987 22.7863284,3.03244017 21.5133673,3.02212668 C21.1386855,3.02311514 20.7692421,3.11065917 20.4335651,3.27799867 C20.07671,1.37680715 18.4245554,0 16.5,0 C14.5754446,0 12.92329,1.37680715 12.5664349,3.27799867 C12.2307579,3.11065917 11.8613145,3.02311514 11.4866327,3.02212668 C10.2136716,3.03244017 9.1505385,4.0002987 9.01450391,5.27271121 C8.87846932,6.54512372 9.71273615,7.71798779 10.9544445,8 C14.5450706,6.73892037 18.4549294,6.73892037 22.0455555,8 L22.0455555,8 Z" id="Path" fill="#56C271"></path>
                    <path d="M46.2285569,25.9954737 L56.6699892,25.9954737 C57.3095755,26.0364769 57.9351438,25.7973498 58.3815968,25.3412018 C58.8280499,24.8850538 59.050525,24.2577218 58.9903075,23.6247685 C59.0502209,22.9911959 58.8279211,22.3633041 58.3817986,21.9060187 C57.9356761,21.4487333 57.3103198,21.2077589 56.6699892,21.2463912 L47.5820759,21.2463912 C47.3791711,21.2745543 47.1742717,21.2105524 47.0242427,21.0721477 C46.8742138,20.933743 46.7950188,20.7356623 46.8086365,20.532878 L46.8086365,16.46662 C46.7950188,16.2638358 46.8742138,16.065755 47.0242427,15.9273503 C47.1742717,15.7889456 47.3791711,15.7249437 47.5820759,15.7531068 L56.6699892,15.7531068 C57.3095755,15.79411 57.9351438,15.5549829 58.3815968,15.0988349 C58.8280499,14.6426869 59.050525,14.015355 58.9903075,13.3824017 C59.0502209,12.748829 58.8279211,12.1209372 58.3817986,11.6636519 C57.9356761,11.2063665 57.3103198,10.9653921 56.6699892,11.0040244 L46.2285569,11.0040244 C42.6707356,11.0040244 41,12.5384614 41,15.5152691 L41,21.4842289 C40.9846376,24.4380201 42.6552668,25.9954737 46.2285569,25.9954737 Z" id="Path" fill="#FF8A3D"></path>
                    <path d="M59.1780987,28 L48.7749699,28 C44.0818291,28 41,30.6741016 41,34.5563817 C41,38.4386617 44.0740072,41 48.7749699,41 L59.1780987,41 C63.8712395,41 67,38.3258984 67,34.5563817 C67,30.7868649 63.8790614,28 59.1780987,28 Z M59.1780987,36.0545229 L48.7749699,36.0545229 C47.6329723,36.0545229 47.0150421,35.4101611 47.0150421,34.5966543 C47.0150421,33.7831475 47.6329723,33.0662949 48.7749699,33.0662949 L59.1780987,33.0662949 C60.3200963,33.0662949 60.977136,33.7348203 60.977136,34.5966543 C60.977136,35.4584882 60.3200963,36.0142503 59.1780987,36.0142503 L59.1780987,36.0545229 Z" id="Shape" fill="#FF8A3D"></path>
                    <path d="M67.5724354,15.5503876 L65.9122944,15.5503876 L65.9122944,12.4031008 C65.9122944,11.0310078 64.706343,10 62.9757244,10 C61.2451057,10 60,11.0310078 60,12.4031008 L60,24.5968992 C60,25.9689922 61.2451057,27 62.9757244,27 C64.706343,27 65.9122944,25.9689922 65.9122944,24.5968992 L65.9122944,21.2790698 L67.5724354,21.2790698 C68.9271731,21.2790698 70,20.1085271 70,18.4341085 C70,16.7596899 68.9271731,15.5503876 67.5724354,15.5503876 Z" id="Path" fill="#FF8A3D"></path>
                    <path d="M97.46189,28.6530115 L73.5386512,28.6530115 C72.8457524,28.6832434 72.172814,28.4184538 71.6890891,27.9252408 C71.2053642,27.4320279 70.9568857,26.7573272 71.0061491,26.0708353 C70.9755764,25.3927294 71.2314977,24.7327139 71.7122441,24.2498322 C72.1929905,23.7669504 72.8549646,23.5049933 73.5386512,23.5270843 L97.46189,23.5270843 C98.1469859,23.5048481 98.8102529,23.7678364 99.2912565,24.2524362 C99.7722602,24.737036 100.027194,25.3991129 99.9943921,26.0785203 C100.041341,26.7637284 99.7918336,27.4363252 99.3083826,27.9277918 C98.8249316,28.4192585 98.1533455,28.6830275 97.46189,28.6530115 L97.46189,28.6530115 Z M92.5362895,20.291679 L92.5362895,17.2176596 C92.5582477,17.0008875 92.4864533,16.7850539 92.3387651,16.6238472 C92.1910769,16.4626406 91.9813755,16.371212 91.761824,16.3723043 L75.1495394,16.3723043 C74.4291504,16.4128668 73.7255303,16.1465809 73.215319,15.6402964 C72.7051077,15.1340119 72.4367565,14.4358072 72.4776335,13.7209627 C72.4454242,13.0021838 72.7142092,12.3021884 73.2202676,11.786925 C73.726326,11.2716616 74.4245964,10.987011 75.1495394,11.0004556 L93.0164581,11.0004556 C96.5712547,11.0004556 98.3835039,12.8371821 98.3835039,16.0649024 L98.3835039,20.3070491 C98.3835039,21.6673026 97.1908271,22.689414 95.4792583,22.689414 C93.7676896,22.689414 92.5362895,21.6519325 92.5362895,20.291679 Z M78.502975,31.9806374 L78.502975,34.0171752 C78.5039474,34.2134005 78.5888698,34.3999801 78.7365882,34.5304376 C78.8843066,34.6608951 79.0809156,34.72295 79.2774404,34.7011445 L96.362149,34.7011445 C97.3496454,34.6483313 98.2857805,35.1410734 98.7955364,35.9819771 C99.3052923,36.8228809 99.3052923,37.8744065 98.7955364,38.7153102 C98.2857805,39.556214 97.3496454,40.0489561 96.362149,39.9961428 L78.053785,39.9961428 C74.529967,39.9961428 72.6325266,38.5052434 72.6325266,35.3851138 L72.6325266,31.9806374 C72.6325266,30.6203839 73.8329481,29.6059575 75.5445168,29.6059575 C77.2560855,29.6059575 78.502975,30.6511241 78.502975,31.9806374 Z" id="Shape" fill="#FF8A3D"></path>
                    <path d="M103,34.2962107 L103,14.7369258 C103,12.0589382 104.350079,10.6623946 107.111257,10.6623946 L114.632036,10.6623946 C117.393214,10.6623946 118.743293,12.0589382 118.743293,14.7369258 L118.743293,34.303884 C118.743293,36.9818716 117.393214,38.370742 114.632036,38.370742 L107.111257,38.370742 C104.350079,38.3630687 103,36.9895449 103,34.2962107 Z M113.312467,32.4315947 L113.312467,16.5938685 C113.312467,16.217876 113.11415,15.9800032 112.778538,15.9800032 L109.002893,15.9800032 C108.659653,15.9800032 108.461336,16.217876 108.461336,16.5938685 L108.461336,32.4315947 C108.441277,32.5869287 108.48962,32.7433326 108.5937,32.859835 C108.69778,32.9763373 108.847228,33.0413297 109.002893,33.0379538 L112.778538,33.0379538 C112.933722,33.0417059 113.08271,32.9765064 113.185659,32.8596248 C113.288607,32.7427433 113.335014,32.5861028 113.312467,32.4315947 L113.312467,32.4315947 Z M122.282483,37.449944 L122.282483,12.5577038 C122.317088,11.8279509 122.645724,11.1438734 123.192621,10.6631914 C123.739519,10.1825094 124.457475,9.94671136 125.180957,10.0101626 C125.901412,9.94659103 126.616233,10.1832383 127.158363,10.6647987 C127.700492,11.1463591 128.022424,11.8306337 128.048922,12.5577038 L128.048922,20.6990931 L129.643083,20.6990931 C130.955024,20.6990931 132,21.9498438 132,23.5458937 C132,25.1419436 130.955024,26.4310608 129.643083,26.4310608 L128.026039,26.4310608 L128.026039,37.449944 C127.997509,38.1756567 127.674699,38.8579298 127.132807,39.3378287 C126.590916,39.8177277 125.877256,40.0533515 125.158075,39.9898119 C123.495266,39.9898119 122.282483,38.8771809 122.282483,37.449944 Z" id="Shape" fill="#FF8A3D"></path>
                    <path d="M147.483568,16.8593917 L148.642355,16.8593917 L148.642355,12.3356074 C148.642355,11.0320126 149.686788,10.1396709 151.272496,10.1396709 C152.858204,10.1396709 153.834025,11.0320126 153.834025,12.3356074 L153.834025,25.883682 C153.834025,27.1872768 152.850581,28.0796184 151.272496,28.0796184 C149.694412,28.0796184 148.642355,27.1950363 148.642355,25.883682 L148.642355,21.9030621 L147.460698,21.9030621 C146.819115,21.8939283 146.227862,21.5475304 145.89786,20.9874419 C144.253577,24.6738852 141.309924,27.5980159 137.649128,29.1814664 C136.463276,29.784208 135.021385,29.3503696 134.34811,28.1882513 C134.014301,27.6544197 133.915028,27.0028303 134.074315,26.3911703 C134.233602,25.7795104 134.636935,25.2635167 135.186706,24.9680618 C136.839059,24.2575827 138.311723,23.1751805 139.494038,21.8021887 L136.673307,21.8021887 C136.119433,21.8402663 135.576775,21.6306565 135.187175,21.2281484 C134.797575,20.8256404 134.599758,20.2702416 134.645431,19.7071256 C134.617114,19.1492889 134.82086,18.6050958 135.206737,18.207911 C135.592613,17.8107262 136.124957,17.5972584 136.673307,17.619822 L141.621022,17.619822 C141.776038,17.0789043 141.88821,16.5262107 141.95646,15.96705 C142.020661,15.7832625 141.990131,15.5789601 141.875145,15.4229132 C141.76016,15.2668662 141.576013,15.1798296 141.384691,15.1911007 L136.810532,15.1911007 C136.209498,15.2448365 135.616167,15.0233782 135.191752,14.5868972 C134.767336,14.1504162 134.555916,13.5442469 134.614936,12.9330883 C134.55881,12.3163844 134.768704,11.7052861 135.190107,11.2584991 C135.611511,10.8117121 136.202843,10.5733221 136.810532,10.6052404 L142.330017,10.6052404 C146.00459,10.6052404 147.666535,12.3899238 147.14813,16.4015816 C147.14813,16.5412525 147.14813,16.7119614 147.087141,16.8516322 C147.218788,16.8317682 147.352769,16.8343906 147.483568,16.8593917 Z M157.790672,39.7731742 C154.0135,38.898231 150.463197,37.2131239 147.376838,34.8303773 C144.786035,37.4155843 141.521116,39.1902481 137.969319,39.9438831 C136.623986,40.2284866 135.291737,39.4047183 134.91988,38.0583263 C134.696695,37.4333491 134.741228,36.7417528 135.042646,36.1517705 C135.344064,35.5617881 135.874741,35.1274932 136.505588,34.9545292 C140.378376,33.9302761 143.618405,31.6334662 145.234607,28.576226 C145.988822,27.4624607 147.396279,27.0224185 148.634732,27.5131755 C150.250934,28.0330615 150.921811,29.5694411 150.418653,30.6712891 L150.418653,30.7411245 C153.032551,32.7620994 156.060509,34.1571912 159.277273,34.8226178 C159.903032,34.9847963 160.432276,35.4086569 160.734336,35.9895511 C161.036397,36.5704452 161.083124,37.2542356 160.862982,37.8720985 C160.717477,38.5473464 160.306799,39.132565 159.726441,39.4916777 C159.146082,39.8507904 158.446612,39.9525064 157.790672,39.7731742 L157.790672,39.7731742 Z M155.122413,26.8070616 L155.122413,12.1959365 C155.122413,10.8923417 156.204964,10 157.821166,10 C159.437369,10 160.481802,10.8923417 160.481802,12.1959365 L160.481802,26.8070616 C160.481802,28.1106564 159.437369,29.0029981 157.821166,29.0029981 C156.204964,29.0029981 155.130036,28.1106564 155.130036,26.8070616 L155.122413,26.8070616 Z" id="Shape" fill="#FF8A3D"></path>
                </g>
            </g>
        </g>
    </g>
</svg>