<?xml version="1.0" encoding="UTF-8"?>
<svg width="126px" height="48px" viewBox="0 0 126 48" version="1.1" xmlns="http://www.w3.org/2000/svg" xmlns:xlink="http://www.w3.org/1999/xlink">
    <!-- Generator: Sketch 55.2 (78181) - https://sketchapp.com -->
    <title>sponser_support_line</title>
    <desc>Created with Sketch.</desc>
    <g id="Welcome" stroke="none" stroke-width="1" fill="none" fill-rule="evenodd">
        <g id="session_now_details_web" transform="translate(-970.000000, -1804.000000)" fill="#3ACE01">
            <g id="sponser_support_line" transform="translate(970.000000, 1804.000000)">
                <g id="line">
                    <path d="M5.49670257,47.9099041 L24.8648339,47.9099041 C27.6198314,47.9099041 29.8731644,45.6202012 29.8731644,42.8215972 L29.8731644,42.397161 C29.8731644,39.5985571 27.6198314,37.309558 24.8648339,37.309558 L10.9228559,37.309558 L10.9228559,5.08760301 C10.9228559,2.28899903 8.66952289,0 5.91452538,0 L5.49670257,0 C2.74170506,0 0.488372093,2.28899903 0.488372093,5.08760301 L0.488372093,42.8215972 C0.488372093,45.6202012 2.74170506,47.9099041 5.49670257,47.9099041 Z M125.511628,24.2569141 L125.511628,23.8324779 C125.511628,21.0338739 123.257602,18.7448749 120.502605,18.7448749 L106.561319,18.7448749 L106.561319,10.6897381 L120.502605,10.6897381 C123.257602,10.6897381 125.511628,8.40073907 125.511628,5.60213509 L125.511628,5.17769892 C125.511628,2.37909494 123.257602,0.0900959029 120.502605,0.0900959029 L101.134473,0.0900959029 C98.3794757,0.0900959029 96.1261427,2.37909494 96.1261427,5.17769892 L96.1261427,42.9116931 C96.1261427,45.7102971 98.3794757,48 101.134473,48 L120.502605,48 C123.257602,48 125.511628,45.7102971 125.511628,42.9116931 L125.511628,42.4872569 C125.511628,39.688653 123.257602,37.3996539 120.502605,37.3996539 L106.561319,37.3996539 L106.561319,29.3445171 L120.502605,29.3445171 C123.257602,29.3445171 125.511628,27.0555181 125.511628,24.2569141 Z M88.2644219,46.3930551 L88.2658077,46.3909435 C89.1925973,45.4417221 89.713042,44.1592248 89.713983,42.8223011 L89.713983,5.08760301 C89.713983,2.28899903 87.46065,0 84.7049596,0 L84.2871368,0 C81.5321393,0 79.2788063,2.28899903 79.2788063,5.08760301 L79.2788063,27.2378215 L61.1766157,2.57266035 C60.311868,1.03962225 58.683537,0 56.8279325,0 L56.4101097,0 C53.6551122,0 51.4010863,2.28899903 51.4010863,5.08760301 L51.4010863,42.8215972 C51.4010863,45.6202012 53.6544193,47.9099049 56.4101097,47.9099049 L56.8279325,47.9099049 C59.58293,47.9099049 61.836263,45.6202012 61.836263,42.8215972 L61.836263,20.2575007 L80.069413,45.5554448 C80.1816639,45.7328211 80.3043084,45.9031586 80.4366536,46.0650497 L80.4373465,46.0664575 C80.9383181,46.7604775 81.623603,47.2362964 82.3871863,47.5269965 C82.9740784,47.7733525 83.6157101,47.9099049 84.2871368,47.9099049 L84.7049596,47.9099049 C85.521166,47.9099049 86.3248847,47.7063175 87.0449059,47.3158342 C87.5451847,47.0729976 87.9671649,46.7611813 88.2644219,46.3930551 L88.2644219,46.3930551 Z M38.9239133,47.9099041 L39.3417361,47.9099041 C42.0967336,47.9099041 44.3500666,45.6202012 44.3500666,42.8215972 L44.3500666,5.08760301 C44.3493736,2.28899903 42.0960407,0 39.3410432,0 L38.9239133,0 C36.1689158,0 33.9148899,2.28899903 33.9148899,5.08760301 L33.9148899,42.8215972 C33.9148899,45.6202012 36.1689158,47.9099041 38.9239133,47.9099041 L38.9239133,47.9099041 Z" id="Shape"></path>
                </g>
            </g>
        </g>
    </g>
</svg>