<?xml version="1.0" encoding="UTF-8"?>
<svg width="275px" height="60px" viewBox="0 0 275 60" version="1.1" xmlns="http://www.w3.org/2000/svg" xmlns:xlink="http://www.w3.org/1999/xlink">
    <!-- Generator: Sketch 55.2 (78181) - https://sketchapp.com -->
    <title>sponser_silver_myrealtrip</title>
    <desc>Created with Sketch.</desc>
    <defs>
        <polygon id="path-1" points="0.76293 0.46936 15.64563 0.46936 15.64563 12 0.76293 12"></polygon>
    </defs>
    <g id="Welcome" stroke="none" stroke-width="1" fill="none" fill-rule="evenodd">
        <g id="session_now_details_web" transform="translate(-645.000000, -1582.000000)">
            <g id="sponser_silver_myrealtrip" transform="translate(645.000000, 1582.000000)">
                <g id="Group-28" transform="translate(-0.000000, 0.000000)">
                    <path d="M236.432783,4.8 C234.322372,4.79578388 232.804106,6.46852857 232.8,8.42217609 C232.79591,10.4856503 234.30803,11.995767 236.420489,12 C238.477628,12.0042152 239.995894,10.5004346 240,8.4348484 C240.00409,6.48120088 238.49197,4.80423209 236.432783,4.8" id="Fill-1" fill="#212529"></path>
                    <polygon id="Fill-3" fill="#212529" points="59.3692809 50.4 52.77141 50.3892357 56.9165327 40.5786868 45.6 14.4 52.1956985 14.4129171 60.3143167 33.7369214 69.0043015 14.4409042 75.6 14.4538213"></polygon>
                    <path d="M43.2,24.9283614 C43.2107354,18.6092041 38.6380114,14.4431295 33.088798,14.4345085 C28.6709359,14.4258876 25.2725804,16.3095654 23.1109682,19.3290536 C21.3924327,16.1953378 18.0543013,14.4064904 14.2279251,14.4 C10.5972769,14.393559 8.13884632,15.6565283 6.23533707,17.8117661 L6.23963879,15.1414265 L5.93851868,15.1414265 L0.0774308847,15.1306503 L0.0494697319,15.1306503 L0,41.9137905 L0.0279611528,41.9137905 L0.0279611528,41.9224114 L6.19231992,41.9331876 L6.21597935,28.3185504 C6.21813021,27.6116324 6.25469479,26.9025592 6.35578512,26.1999517 C6.96017619,22.0295665 9.13684439,20.1351125 12.7631908,20.1415782 C16.211016,20.1480439 18.5145849,22.3571627 18.5081323,26.2969374 L18.4780203,41.9461191 L24.642379,41.9568952 L24.6660385,28.9543456 C24.6767928,22.9606293 27.0147753,20.1501992 31.378866,20.1566649 C34.8288421,20.1631306 36.9710966,22.3938017 36.9667949,26.3357317 L36.9926051,27.1762744 L36.9667949,41.9870686 L43.1290028,42 L43.1290028,41.991379 L43.1698691,41.991379 L43.2,24.9283614 Z" id="Fill-5" fill="#212529"></path>
                    <path d="M123.025048,32.8455445 C121.679081,34.8597703 119.211838,36.3925163 116.205771,36.3904138 C112.911751,36.3841062 109.015644,34.3509575 108.479003,29.5046208 L129.597819,29.5403638 L129.6,27.6438798 C129.342586,19.795127 123.341361,14.410542 116.07052,14.4 C108.420103,14.3853116 102.015306,19.9065612 102,28.2283837 C101.982584,36.4976429 108.424466,41.9894571 115.800018,42 C121.814332,42.0104824 126.626656,39.2813956 128.880115,33.8064017 L123.025048,32.8455445 Z M116.101061,19.4292711 C119.451799,19.435594 122.25717,21.3383857 123.038137,25.1881222 L108.651339,25.1628918 C109.445394,21.3657186 112.898662,19.4229788 116.101061,19.4292711 L116.101061,19.4292711 Z" id="Fill-7" fill="#2B96ED"></path>
                    <polygon id="Fill-9" fill="#2B96ED" points="170.466253 3.6 170.4 41.9872312 176.331677 42 176.4 3.61064066"></polygon>
                    <path d="M197.984677,37.2654548 C194.971752,37.2591325 194.112721,36.161162 194.116931,33.4383638 L194.137986,21.6304392 L202.671449,21.6451912 L202.677766,16.4356267 L194.148514,16.4187673 L194.163252,8.41053714 L188.128979,8.4 L188.114241,16.4103376 L182.410527,16.3998004 L182.4,21.6072575 L188.105819,21.6177946 L188.082659,33.7966267 C188.072132,40.2917228 191.86408,43.1915451 197.506736,43.2 C199.723794,43.2041897 201.519758,42.6794399 204,41.206347 L202.321942,36.0621129 C200.947071,36.9577702 199.355337,37.2675622 197.984677,37.2654548" id="Fill-11" fill="#212529"></path>
                    <polygon id="Fill-13" fill="#212529" points="232.8 41.9893822 238.752233 42 238.8 15.6127413 232.845691 15.6"></polygon>
                    <path d="M261.526435,15.6 C257.877345,15.5936996 254.795796,16.7051874 252.517003,18.6582002 L252.521319,16.2496251 L246.09495,16.2369706 L246.09495,16.3128976 L246.064738,16.3128976 L246,51.5050912 L246.028053,51.5050912 L246.028053,51.5873455 L252.45658,51.6 L252.47816,40.2003952 C254.748321,42.1597352 257.823397,43.2817685 261.476802,43.2880957 C268.503081,43.3007502 274.787025,37.7622928 274.8,29.4672612 C274.815078,21.2249568 268.554871,15.6126814 261.526435,15.6 M260.656782,37.5071032 C256.642999,37.4986572 252.683165,34.396193 252.693932,29.3913342 C252.702586,24.4328752 256.67321,21.2966657 260.684835,21.3029834 C265.13884,21.3114292 268.606662,24.4624023 268.595898,29.4187523 C268.587241,34.4215021 265.108629,37.5134208 260.656782,37.5071032" id="Fill-15" fill="#212529"></path>
                    <path d="M216.326461,20.3621264 L216.335245,15.7052889 L210.050506,15.6947626 L210,41.9894737 L216.284738,42 L216.304502,31.8652731 C216.317677,25.3410689 219.413932,21.7368619 226.036843,21.7473882 L227.611321,21.7515988 L228,15.7916046 C227.352202,15.6021311 226.807613,15.6 226.100525,15.6 C221.704282,15.5916048 218.502623,17.6421291 216.326461,20.3621264" id="Fill-17" fill="#212529"></path>
                    <path d="M89.1264609,20.3621264 L89.1352446,15.7073941 L82.8505063,15.6947626 L82.8,41.9894737 L89.0847383,42 L89.1045016,31.8652731 C89.1176772,25.3410689 92.2139319,21.7368619 98.8346468,21.7494935 L100.409125,21.7515987 L100.8,15.7916046 C100.150006,15.6021311 99.6076125,15.6021311 98.9005246,15.6 C94.5042821,15.5916048 91.3026229,17.6442343 89.1264609,20.3621264" id="Fill-19" fill="#2B96ED"></path>
                    <g id="Group-23" transform="translate(94.800000, 48.000000)">
                        <mask id="mask-2" fill="white">
                            <use xlink:href="#path-1"></use>
                        </mask>
                        <g id="Clip-22"></g>
                        <polygon id="Fill-21" fill="#2B96ED" mask="url(#mask-2)" points="0.76293 11.95776 5.69793 12.00176 15.64563 0.51776 10.75053 0.46936"></polygon>
                    </g>
                    <polygon id="Fill-24" fill="#2B96ED" points="152.4 0 147.216287 0.0149673332 136.8 10.5348644 142.021469 10.8"></polygon>
                    <path d="M155.817468,15.0706273 L155.813147,17.7089046 C153.51684,15.610896 150.337005,14.406328 146.539349,14.4 C139.503532,14.3874081 133.217309,19.9582724 133.2,28.1758228 C133.184906,36.4438263 139.453847,41.9873619 146.489664,42 C150.28516,42.0062818 153.469315,40.8122248 155.772103,38.7205229 L155.769943,41.3251648 L161.952475,41.3356759 L162,15.0811384 L155.817468,15.0706273 Z M147.178772,36.5615596 C142.579676,36.5531414 138.995881,33.3493689 139.006658,28.1842317 C139.015323,23.0695476 142.609919,19.8300374 147.211175,19.8384299 C151.354466,19.8447529 155.44159,23.0989785 155.430811,28.2136626 C155.422148,33.3787999 151.324223,36.5678569 147.178772,36.5615596 L147.178772,36.5615596 Z" id="Fill-26" fill="#2B96ED"></path>
                </g>
            </g>
        </g>
    </g>
</svg>